<?xml version="1.0" encoding="UTF-8" standalone="no"?>
<!-- Created with Inkscape (http://www.inkscape.org/) -->

<svg
   width="210mm"
   height="297mm"
   viewBox="0 0 210 297"
   version="1.1"
   id="svg1"
   inkscape:version="1.4 (86a8ad7, 2024-10-11)"
   sodipodi:docname="logo para pagina web.svg"
   inkscape:export-filename="logo para pagina web.png"
   inkscape:export-xdpi="96"
   inkscape:export-ydpi="96"
   xmlns:inkscape="http://www.inkscape.org/namespaces/inkscape"
   xmlns:sodipodi="http://sodipodi.sourceforge.net/DTD/sodipodi-0.dtd"
   xmlns:xlink="http://www.w3.org/1999/xlink"
   xmlns="http://www.w3.org/2000/svg"
   xmlns:svg="http://www.w3.org/2000/svg">
  <sodipodi:namedview
     id="namedview1"
     pagecolor="#ffffff"
     bordercolor="#000000"
     borderopacity="0.25"
     inkscape:showpageshadow="2"
     inkscape:pageopacity="0.0"
     inkscape:pagecheckerboard="0"
     inkscape:deskcolor="#d1d1d1"
     inkscape:document-units="mm"
     inkscape:zoom="1"
     inkscape:cx="397"
     inkscape:cy="401.5"
     inkscape:window-width="1920"
     inkscape:window-height="991"
     inkscape:window-x="-9"
     inkscape:window-y="-9"
     inkscape:window-maximized="1"
     inkscape:current-layer="layer1" />
  <defs
     id="defs1">
    <rect
       x="193"
       y="472"
       width="419.81893"
       height="213.0202"
       id="rect56" />
    <rect
       x="195"
       y="501"
       width="372"
       height="109"
       id="rect55" />
    <rect
       x="161.22035"
       y="364.8671"
       width="403.05087"
       height="104.6518"
       id="rect48" />
    <linearGradient
       id="linearGradient44"
       inkscape:collect="always">
      <stop
         style="stop-color:#228b22;stop-opacity:1;"
         offset="0"
         id="stop43" />
      <stop
         style="stop-color:#7cfc00;stop-opacity:1;"
         offset="1"
         id="stop44" />
    </linearGradient>
    <linearGradient
       id="linearGradient42"
       inkscape:collect="always">
      <stop
         style="stop-color:#228b22;stop-opacity:1;"
         offset="0"
         id="stop41" />
      <stop
         style="stop-color:#228b22;stop-opacity:1;"
         offset="1"
         id="stop42" />
    </linearGradient>
    <rect
       x="401.78749"
       y="619.94015"
       width="187.77697"
       height="133.92916"
       id="rect27" />
    <rect
       x="287.18831"
       y="557.80806"
       width="147.73629"
       height="208.48767"
       id="rect25" />
    <rect
       x="318.94471"
       y="434.9246"
       width="226.43694"
       height="93.888485"
       id="rect24" />
    <rect
       x="106.3149"
       y="234.72121"
       width="306.51829"
       height="207.10695"
       id="rect1" />
    <linearGradient
       inkscape:collect="always"
       xlink:href="#linearGradient44"
       id="linearGradient37"
       x1="176.74165"
       y1="109.53751"
       x2="29.104166"
       y2="107.95"
       gradientUnits="userSpaceOnUse"
       gradientTransform="matrix(2.348321,0,0,2.3516939,-128.68734,-172.32863)" />
    <linearGradient
       inkscape:collect="always"
       xlink:href="#linearGradient42"
       id="linearGradient38"
       x1="176.74165"
       y1="109.53751"
       x2="29.104166"
       y2="107.95"
       gradientUnits="userSpaceOnUse"
       gradientTransform="matrix(1.896626,0,0,2.4934038,-92.918029,-186.28175)" />
  </defs>
  <g
     inkscape:label="Capa 1"
     inkscape:groupmode="layer"
     id="layer1">
    <text
       xml:space="preserve"
       transform="scale(0.26458333)"
       id="text1"
       style="font-size:53.3333px;white-space:pre;shape-inside:url(#rect1);display:inline;fill:#2b1100;stroke:#ffffff;stroke-width:11.3386;stroke-opacity:0.451128" />
    <path
       d="m 110.49802,57.755441 c -2.05331,0 -3.59329,0.141076 -4.61995,0.4219 -1.045,0.252733 -1.97045,0.645517 -2.77711,1.179061 -0.80668,0.533541 -1.48519,1.193888 -2.03517,1.980165 -0.55003,0.758196 -1.01732,1.670228 -1.40233,2.737318 -0.403314,1.039022 -0.696846,2.176042 -0.880184,3.411615 -0.201668,1.207508 -0.302265,2.443032 -0.302265,3.706696 0,1.572542 0.127925,3.075665 0.38471,4.507813 0.238317,1.404035 0.595876,2.682179 1.07254,3.833507 0.458319,1.123244 0.998799,2.091219 1.622129,2.905579 0.62333,0.786273 1.21954,1.404035 1.78787,1.853335 0.56833,0.449303 1.32918,0.927252 2.28251,1.432708 -0.86168,0.280816 -1.54932,0.561729 -2.06268,0.842546 -0.51333,0.252727 -1.06293,0.658874 -1.64959,1.220508 -0.58669,0.53352 -1.13716,1.236443 -1.65048,2.106989 -0.531682,0.842426 -0.953278,1.741122 -1.264914,2.695874 -0.311666,0.954769 -0.550327,2.021243 -0.715325,3.200667 -0.183337,1.151332 -0.274789,2.358905 -0.274789,3.622575 0,2.695753 0.384985,5.166883 1.154974,7.413353 0.75167,2.24652 1.796894,4.03055 3.135224,5.35037 1.33834,1.29171 2.84172,2.1612 4.51004,2.6105 1.64997,0.42121 5.16977,0.63285 10.55978,0.63285 l 6.65515,-0.0427 4.97716,0.0427 c -0.34835,-5.95323 -0.58612,-10.82609 -0.71444,-14.61708 -0.12831,-3.790949 -0.29385,-10.262951 -0.49553,-19.417437 -0.20165,-9.154492 -0.30224,-15.445322 -0.30224,-18.871226 0,-1.039008 0.009,-2.57008 0.0275,-4.591927 -2.31001,0.05615 -4.2258,0.08539 -5.74747,0.08539 -1.54001,0 -3.43752,-0.04257 -5.69251,-0.126813 -2.255,-0.08425 -4.11592,-0.126811 -5.5826,-0.126811 z m 2.52981,8.171803 h 6.6002 l 0.38558,15.83757 h -4.42762 c -1.88832,0 -3.15392,-0.06925 -3.79558,-0.209694 -0.65999,-0.14045 -1.34678,-0.40797 -2.06179,-0.80112 -0.71499,-0.421212 -1.32036,-1.052338 -1.81535,-1.894787 -0.49501,-0.870514 -0.85257,-1.811786 -1.07255,-2.822695 -0.23834,-1.039025 -0.35722,-2.092142 -0.35722,-3.15923 0,-1.038999 0.12793,-2.021601 0.38469,-2.948269 0.23834,-0.926692 0.61417,-1.684293 1.12752,-2.27399 0.51333,-0.617787 1.13698,-1.053165 1.8703,-1.305893 0.71501,-0.280815 1.7685,-0.421892 3.16182,-0.421892 z m 0.30314,24.05206 h 6.92995 l 0.41217,17.186126 h -6.24208 c -1.26499,0 -2.2462,-0.0705 -2.94287,-0.21089 -0.71498,-0.16865 -1.39352,-0.44943 -2.03518,-0.84256 -0.64166,-0.39315 -1.14555,-0.81391 -1.51221,-1.2632 -0.36667,-0.44931 -0.68764,-1.02573 -0.96266,-1.72779 -0.29332,-0.70203 -0.52284,-1.4876 -0.68785,-2.35812 -0.16502,-0.898589 -0.24729,-1.825241 -0.24729,-2.780024 0,-1.291695 0.14717,-2.43001 0.44055,-3.412856 0.29332,-0.982846 0.73318,-1.82434 1.31985,-2.526374 0.56833,-0.73011 1.2377,-1.250642 2.00771,-1.559519 0.77,-0.33697 1.94327,-0.504779 3.51991,-0.504779 z"
       style="font-size:53.3333px;font-family:'Eras Demi ITC';-inkscape-font-specification:'Eras Demi ITC';white-space:pre;shape-inside:url(#rect24);fill:#8b4513;fill-opacity:1;stroke:#ffffff;stroke-width:23.1483;stroke-opacity:0.451128"
       id="path51" />
    <path
       d="m 75.446368,58.466006 c -2.91149,0 -5.509269,0.176529 -7.793281,0.529846 -2.30911,0.353314 -4.354783,1.16897 -6.136813,2.446353 -1.782031,1.27737 -3.10031,2.826255 -3.953675,4.647195 -0.878468,1.820941 -1.317892,3.941857 -1.317892,6.360718 0,1.522002 0.163984,2.975532 0.490263,4.361613 0.326291,1.358914 0.815797,2.650065 1.468371,3.873086 0.627478,1.195826 1.379911,2.255077 2.258378,3.179131 0.878464,0.896887 1.757316,1.617187 2.635784,2.160757 0.853365,0.51639 1.832383,0.964806 2.936736,1.345316 1.104359,0.380484 2.584188,0.84305 4.441516,1.386622 l -2.559331,5.381221 c -0.82827,1.712226 -2.396953,4.782919 -4.706064,9.212976 l -3.803197,7.21627 c -0.200783,0.38049 -0.802983,1.61751 -1.806946,3.71023 3.062083,-0.0544 5.082715,-0.0826 6.061575,-0.0826 1.204756,0 3.325546,0.0282 6.362532,0.0826 l 4.179391,-10.84509 c 0.72787,-1.65785 1.605511,-3.613957 2.634569,-5.869758 l 4.555586,-9.906888 c 0.451787,-0.92404 1.080235,-2.310532 1.883396,-4.158655 -1.681636,0.326121 -3.212767,0.489763 -4.593203,0.489763 -2.158518,0 -4.129068,-0.380185 -5.911099,-1.141136 -1.782033,-0.761009 -3.150392,-1.929738 -4.104154,-3.506074 -0.953765,-1.603504 -1.430748,-3.343071 -1.430748,-5.218389 0,-1.141462 0.214049,-2.201934 0.64074,-3.180351 0.401588,-0.978403 1.09142,-1.807003 2.070282,-2.486451 0.978865,-0.679451 2.145681,-1.113743 3.501029,-1.303998 1.355349,-0.190241 2.711186,-0.285582 4.066536,-0.285582 0.752967,0 1.782071,0.01136 3.087213,0.04016 1.305146,0.02711 2.911394,0.04145 4.818923,0.04145 l 0.677152,16.754954 0.715983,30.576235 5.835861,-0.0826 c 0.928659,0 2.822865,0.0283 5.684165,0.0826 C 97.582974,106.17843 97.01834,96.869745 96.64185,86.351792 96.265378,75.83384 96.077568,66.592223 96.077568,58.629025 c -3.011889,0.05436 -5.534547,0.0826 -7.567562,0.0826 -2.183618,0 -4.316934,-0.04115 -6.400157,-0.122777 -2.108324,-0.08147 -4.329271,-0.122777 -6.663481,-0.122777 z"
       style="font-size:53.3333px;font-family:'Eras Demi ITC';-inkscape-font-specification:'Eras Demi ITC';white-space:pre;shape-inside:url(#rect24);opacity:1;fill:url(#linearGradient37);stroke:#ffffff;stroke-width:26.6458;stroke-opacity:0.451128"
       id="path50" />
    <text
       xml:space="preserve"
       transform="scale(0.26458333)"
       id="text25"
       style="font-style:normal;font-variant:normal;font-weight:normal;font-stretch:normal;font-size:96px;font-family:'Eras Demi ITC';-inkscape-font-specification:'Eras Demi ITC';white-space:pre;shape-inside:url(#rect25);display:inline;fill:#ffcc00;stroke:#ffffff;stroke-width:11.3386;stroke-opacity:0.451128" />
    <path
       d="m 42.728027,59.24748 c -4.0285,0 -7.373042,0.601013 -10.033372,1.803904 -2.634994,1.177293 -4.62407,2.827472 -5.966902,4.951703 -1.317497,2.098673 -1.975898,4.351139 -1.975898,6.756924 0,1.305247 0.177484,2.533397 0.532198,3.685101 0.354711,1.151703 0.936766,2.31712 1.747535,3.49443 0.810766,1.151703 1.97684,2.456926 3.497028,3.915742 0.684085,0.665439 1.925522,1.778619 3.724411,3.339815 3.775135,3.224769 6.396838,5.541246 7.866352,6.94889 1.064131,1.023722 1.824657,2.008869 2.280712,2.955811 0.304039,0.691015 0.455752,1.471028 0.455752,2.341237 0,1.126063 -0.342092,2.150393 -1.026174,3.071773 -0.658748,0.89578 -1.696925,1.59998 -3.115766,2.11186 -1.393505,0.48626 -2.901665,0.7293 -4.523202,0.7293 -4.053833,0 -8.563472,-1.13932 -13.529418,-3.41712 0.329375,2.45695 0.595116,5.63053 0.797809,9.52075 3.521768,0.79339 6.359621,1.33037 8.513223,1.6119 2.1536,0.28153 4.041533,0.42262 5.663066,0.42262 2.45764,0 4.788803,-0.24309 6.993077,-0.72929 2.204271,-0.46067 4.231031,-1.3047 6.080593,-2.5332 1.849563,-1.22846 3.268488,-2.78978 4.256612,-4.6837 0.988121,-1.91947 1.481924,-3.95509 1.481924,-6.104893 0,-0.921373 -0.101144,-1.791538 -0.303833,-2.610521 -0.177354,-0.8446 -0.455988,-1.663777 -0.836032,-2.457173 -0.380048,-0.793408 -0.912515,-1.624383 -1.596597,-2.494533 -0.65875,-0.870201 -1.456955,-1.77952 -2.394407,-2.72649 -0.937448,-0.946944 -2.0014,-1.919023 -3.192213,-2.917158 l -5.282786,-4.299749 c -0.70942,-0.563011 -1.571088,-1.292107 -2.584546,-2.187863 -0.988124,-0.921362 -1.747666,-1.714439 -2.279732,-2.379853 -0.506731,-0.691022 -0.861706,-1.242389 -1.064399,-1.65188 -0.202692,-0.435075 -0.354406,-0.870148 -0.455751,-1.305248 -0.101362,-0.460681 -0.15192,-0.895754 -0.15192,-1.305247 0,-1.510006 0.78532,-2.82702 2.35618,-3.953117 1.596201,-1.151703 3.635844,-1.727879 6.118819,-1.727879 3.344414,0 6.992382,0.766946 10.944873,2.302534 C 55.345195,66.297358 55.09234,63.251815 54.965659,60.590099 50.430428,59.694334 46.351139,59.24748 42.728024,59.24748 Z"
       style="font-size:35.9726px;font-family:'Eras Demi ITC';-inkscape-font-specification:'Eras Demi ITC';fill:url(#linearGradient38);stroke:#ffffff;stroke-width:9.23945;stroke-opacity:0.451128"
       id="path49" />
    <text
       xml:space="preserve"
       transform="scale(0.26458333)"
       id="text27"
       style="font-style:normal;font-variant:normal;font-weight:normal;font-stretch:normal;font-size:96px;font-family:'Eras Demi ITC';-inkscape-font-specification:'Eras Demi ITC';white-space:pre;shape-inside:url(#rect27);display:inline;fill:#ffcc00;stroke:#ffffff;stroke-width:11.3386;stroke-opacity:0.451128" />
    <path
       d="m 128.3714,58.065423 c -0.0293,2.125352 -0.16059,5.228341 -0.39275,9.308992 l 10.0537,-0.297958 2.69918,-0.04155 2.82809,-0.04307 h 3.04793 l -0.6096,18.193783 -0.95835,18.49052 -0.95684,12.41111 c 4.0041,-0.0567 6.36828,-0.0846 7.09367,-0.0846 l 6.61603,0.0846 c 0,-2.2387 0.0155,-4.39192 0.0439,-6.4606 l 0.0865,-5.01625 1.26162,-29.924404 0.52314,-7.77874 h 3.35124 c 4.81654,0 9.85002,0.127413 15.10175,0.382565 0,-2.153699 0.14507,-5.228773 0.43521,-9.224436 l -8.35534,0.04293 -15.62491,0.04165 c -9.13973,0 -17.8878,-0.02789 -26.2442,-0.08458 z"
       style="font-size:32.4063px;font-family:'Eras Demi ITC';-inkscape-font-specification:'Eras Demi ITC';fill:#87ceeb;fill-opacity:1;stroke:#ffffff;stroke-width:10.4042;stroke-opacity:0.451128"
       id="path52" />
    <text
       xml:space="preserve"
       transform="scale(0.26458333)"
       id="text48"
       style="font-style:normal;font-variant:normal;font-weight:normal;font-stretch:normal;font-size:96px;font-family:'Clarendon Lt BT';-inkscape-font-specification:'Clarendon Lt BT';white-space:pre;shape-inside:url(#rect48);display:inline;opacity:1;fill:#09ef1c;fill-opacity:0.954155;stroke:#ffffff;stroke-width:11.3386;stroke-opacity:0.451128" />
    <text
       xml:space="preserve"
       transform="scale(0.26458333)"
       id="text55"
       style="font-style:normal;font-variant:normal;font-weight:normal;font-stretch:normal;font-size:96px;font-family:'Clarendon Lt BT';-inkscape-font-specification:'Clarendon Lt BT';white-space:pre;shape-inside:url(#rect55);display:inline;opacity:0.18;fill:#87ceeb;fill-opacity:1;stroke:#ffffff;stroke-width:11.3386;stroke-opacity:0.451128" />
    <text
       xml:space="preserve"
       transform="matrix(0.40433673,0,0,0.36679011,-59.236943,-57.307241)"
       id="text56"
       style="font-style:normal;font-variant:normal;font-weight:normal;font-stretch:normal;font-size:43.97056558px;font-family:Mistral;-inkscape-font-specification:Mistral;white-space:pre;shape-inside:url(#rect56);display:inline;opacity:1;fill:#2e8b57;fill-opacity:1;stroke:#ffffff;stroke-width:11.3386;stroke-opacity:0.451128"><tspan
         x="193"
         y="509.45765"
         id="tspan2">&quot;siembra en tu presente para </tspan><tspan
         x="193"
         y="564.42091"
         id="tspan3">que cuides tu futuro futuro&quot;</tspan></text>
  </g>
</svg>
